<svg xmlns="http://www.w3.org/2000/svg" viewBox="0 0 179 135"><path fill="#fbfbfb" stroke="#fbfbfb" d="M85.179 50.932C42.652 66.228 7.371 79.229 6.777 79.823c-1.673 1.673 1.569 2.641 25.712 7.673 12.095 2.52 22.291 4.903 22.66 5.293.368.391 4.339 7.011 8.824 14.711 11.42 19.607 9.088 19.076 22.373 5.097l11.294-11.885 22.295 4.729c12.262 2.601 22.672 4.352 23.134 3.89 1.05-1.05 22.931-81.462 22.931-84.272 0-1.317-.63-2.037-1.75-1.998-.963.033-36.545 12.575-79.071 27.871" fill-rule="evenodd"/><path fill="#acacac" stroke="#acacac" d="M142.5 30.986c-10.45 3.785-42.4 15.256-71 25.491C7.155 79.504 7.458 79.39 7.69 80.549c.105.523 10.88 3.213 23.946 5.977l23.754 5.025 8.555 14.697c4.705 8.083 9.155 15.271 9.889 15.974 1.097 1.05 3.323-.821 12.5-10.507L97.5 99.93l22.237 4.714c12.231 2.593 22.532 4.421 22.891 4.062.484-.485 23.327-83.049 23.365-84.456.034-1.221-7.445.923-23.493 6.736" fill-rule="evenodd"/><path fill="#554850" stroke="#554850" d="M87 51.547C44.925 66.648 9.873 79.238 9.107 79.525c-2.525.946-.565 1.512 20.74 5.989 11.605 2.439 22.221 4.716 23.591 5.06 1.927.484 4.446 4 11.118 15.523 4.745 8.194 9.126 15.206 9.736 15.583.645.399 5.526-4.002 11.659-10.509 12.419-13.181 8.993-12.533 35.549-6.725 11 2.406 20.305 4.077 20.678 3.714.669-.651 22.822-81.447 22.822-83.236 0-1.422 2.926-2.421-78 26.623" fill-rule="evenodd"/><path fill="#9f1069" stroke="#9f1069" d="M153.388 35.294c-3.362 2.863-20.349 17.118-37.75 31.678C98.237 81.532 84 93.703 84 94.02c0 1.065 55.114 12.268 55.914 11.365.432-.487 5.188-17.085 10.57-36.885 5.382-19.8 9.998-36.562 10.258-37.25.881-2.334-1.227-1.174-7.354 4.044M131.5 37.408c-9.35 3.397-39.5 14.214-67 24.039C37 71.271 14.313 79.465 14.083 79.655c-.916.759 1.205 1.298 21.441 5.447l21.025 4.311 24.475-15.05A19325.267 19325.267 0 0 1 126.5 46.499c29.584-18.053 29.563-18.015 5-9.091M103 63.578c-22.825 14.047-42.143 25.913-42.929 26.37-1.14.664.055 3.368 5.918 13.397 4.04 6.911 7.641 12.384 8.002 12.161.361-.223 1.493-4.969 2.516-10.546l1.861-10.141 32.795-27.47c28.958-24.257 34.866-29.407 33.646-29.329-.17.011-18.984 11.512-41.809 25.558m-23.281 42.111c-.921 4.779-1.488 8.875-1.26 9.104.44.439 12.5-12.101 13.811-14.36.552-.952-.297-1.624-3-2.375-7.556-2.098-7.697-1.986-9.551 7.631" fill-rule="evenodd"/></svg>